ply
format ascii 1.0
comment VCGLIB generated
element vertex 186
property float x
property float y
property float z
property float nx
property float ny
property float nz
property float texture_u
property float texture_v
element face 62
property list uchar int vertex_indices
end_header
-1.117587e-08 -1 -1 -4.598569e-08 -0.9981315 -0.06110216 0.000977 0.999023
0.195091 -1 -0.980786 0.1947251 -0.06106753 -0.978955 0.164309 0.999023
0.382684 -1 -0.92388 0.3248999 -0.5283884 -0.784376 0.165690 0.834310
0.555571 -1 -0.83147 0.4716814 -0.5283885 -0.7059195 0.330976 0.999023
0.707107 -1 -0.7071069 0.6003366 -0.5283885 -0.6003346 0.332357 0.834310
0.83147 -1 -0.55557 0.7059197 -0.5283884 -0.4716811 0.334310 0.999023
0.92388 -1 -0.382684 0.7843757 -0.5283885 -0.3249007 0.335691 0.834310
0.980786 -1 -0.195091 0.8326896 -0.5283886 -0.1656312 0.664309 0.999023
1 -1 2.235174e-08 0.8490028 -0.5283884 2.165373e-07 0.665690 0.834310
0.980786 -1 0.19509 0.8326895 -0.5283886 0.1656314 0.830976 0.999023
0.92388 -1 0.382683 0.7843761 -0.5283885 0.3248997 0.832357 0.834310
0.83147 -1 0.55557 0.7059194 -0.5283887 0.4716814 0.997642 0.999023
0.707107 -1 0.707106 0.6003355 -0.5283886 0.6003357 0.999023 0.834310
0.555571 -1 0.8314691 0.4716813 -0.5283886 0.7059194 0.164309 0.832357
0.382684 -1 0.923879 0.3248992 -0.5283886 0.7843761 0.165690 0.667643
0.19509 -1 0.980785 0.1656329 -0.5283886 0.8326892 0.330976 0.832357
-1.117587e-08 -1 1 0 -0.5283887 0.8490027 0.169024 0.667643
-0.19509 -1 0.980785 -0.1656329 -0.5283886 0.8326892 0.334310 0.832357
-0.382684 -1 0.923879 -0.3249002 -0.5283887 0.7843758 0.335691 0.667643
-0.55557 -1 0.8314691 -0.4716811 -0.5283886 0.7059196 0.500977 0.832357
-0.707107 -1 0.707106 -0.6003355 -0.5283887 0.6003355 0.502358 0.667643
-0.83147 -1 0.5555691 -0.7059211 -0.5283887 0.4716787 0.667643 0.832357
-0.923879 -1 0.382682 -0.7843767 -0.5283886 0.324898 0.832357 0.667643
-1.117587e-08 1 2.235174e-08 2.472094e-07 1 -4.808301e-07 0.000977 0.835691
-0.980785 -1 0.195089 -0.832689 -0.5283887 0.1656334 0.997642 0.832357
-1 -1 -9.760261e-07 -0.8490027 -0.5283887 2.129875e-07 0.835691 0.667643
-0.980785 -1 -0.195092 -0.8326891 -0.5283886 -0.1656332 0.164309 0.665690
-0.923879 -1 -0.382685 -0.784376 -0.5283885 -0.3248998 0.002358 0.500977
-0.831469 -1 -0.555572 -0.7059194 -0.5283886 -0.4716815 0.330976 0.665690
-0.707106 -1 -0.707108 -0.6003346 -0.5283884 -0.6003366 0.169024 0.500977
-0.555569 -1 -0.831471 -0.4716787 -0.5283886 -0.7059212 0.497642 0.665690
-0.382682 -1 -0.92388 -0.3248975 -0.5283884 -0.784377 0.499023 0.500977
-0.195088 -1 -0.980786 -0.1947251 -0.06106768 -0.978955 0.664309 0.665690
0.195091 -1 -0.980786 0.1947251 -0.06106753 -0.978955 0.165690 0.997642
-1.117587e-08 1 2.235174e-08 2.472094e-07 1 -4.808301e-07 0.002358 0.834310
0.382684 -1 -0.92388 0.3248999 -0.5283884 -0.784376 0.167643 0.999023
-1.117587e-08 1 2.235174e-08 2.472094e-07 1 -4.808301e-07 0.167643 0.835691
0.555571 -1 -0.83147 0.4716814 -0.5283885 -0.7059195 0.332357 0.997642
-1.117587e-08 1 2.235174e-08 2.472094e-07 1 -4.808301e-07 0.169024 0.834310
0.707107 -1 -0.7071069 0.6003366 -0.5283885 -0.6003346 0.334310 0.835691
-1.117587e-08 1 2.235174e-08 2.472094e-07 1 -4.808301e-07 0.497642 0.999023
0.83147 -1 -0.55557 0.7059197 -0.5283884 -0.4716811 0.499023 0.834310
-1.117587e-08 1 2.235174e-08 2.472094e-07 1 -4.808301e-07 0.499023 0.997642
0.92388 -1 -0.382684 0.7843757 -0.5283885 -0.3249007 0.500977 0.999023
-1.117587e-08 1 2.235174e-08 2.472094e-07 1 -4.808301e-07 0.500977 0.835691
0.980786 -1 -0.195091 0.8326896 -0.5283886 -0.1656312 0.665690 0.997642
-1.117587e-08 1 2.235174e-08 2.472094e-07 1 -4.808301e-07 0.502358 0.834310
1 -1 2.235174e-08 0.8490028 -0.5283884 2.165373e-07 0.667643 0.999023
-1.117587e-08 1 2.235174e-08 2.472094e-07 1 -4.808301e-07 0.667643 0.835691
0.980786 -1 0.19509 0.8326895 -0.5283886 0.1656314 0.832357 0.997642
-1.117587e-08 1 2.235174e-08 2.472094e-07 1 -4.808301e-07 0.669024 0.834310
0.92388 -1 0.382683 0.7843761 -0.5283885 0.3248997 0.834310 0.999023
-1.117587e-08 1 2.235174e-08 2.472094e-07 1 -4.808301e-07 0.834310 0.835691
0.83147 -1 0.55557 0.7059194 -0.5283887 0.4716814 0.999023 0.997642
-1.117587e-08 1 2.235174e-08 2.472094e-07 1 -4.808301e-07 0.835691 0.834310
0.707107 -1 0.707106 0.6003355 -0.5283886 0.6003357 0.000977 0.832357
-1.117587e-08 1 2.235174e-08 2.472094e-07 1 -4.808301e-07 0.000977 0.669024
0.555571 -1 0.8314691 0.4716813 -0.5283886 0.7059194 0.165690 0.830976
-1.117587e-08 1 2.235174e-08 2.472094e-07 1 -4.808301e-07 0.002358 0.667643
0.382684 -1 0.923879 0.3248992 -0.5283886 0.7843761 0.167643 0.832357
-1.117587e-08 1 2.235174e-08 2.472094e-07 1 -4.808301e-07 0.167643 0.669024
0.19509 -1 0.980785 0.1656329 -0.5283886 0.8326892 0.332357 0.667643
-1.117587e-08 1 2.235174e-08 2.472094e-07 1 -4.808301e-07 0.332357 0.830976
-1.117587e-08 -1 1 0 -0.5283887 0.8490027 0.334310 0.669024
-1.117587e-08 1 2.235174e-08 2.472094e-07 1 -4.808301e-07 0.497642 0.832357
-0.19509 -1 0.980785 -0.1656329 -0.5283886 0.8326892 0.499023 0.667643
-1.117587e-08 1 2.235174e-08 2.472094e-07 1 -4.808301e-07 0.499023 0.830976
-0.382684 -1 0.923879 -0.3249002 -0.5283887 0.7843758 0.500977 0.669024
-1.117587e-08 1 2.235174e-08 2.472094e-07 1 -4.808301e-07 0.664309 0.832357
-0.55557 -1 0.8314691 -0.4716811 -0.5283886 0.7059196 0.665690 0.667643
-1.117587e-08 1 2.235174e-08 2.472094e-07 1 -4.808301e-07 0.665690 0.830976
-0.707107 -1 0.707106 -0.6003355 -0.5283887 0.6003355 0.667643 0.669024
-1.117587e-08 1 2.235174e-08 2.472094e-07 1 -4.808301e-07 0.830976 0.832357
-0.83147 -1 0.5555691 -0.7059211 -0.5283887 0.4716787 0.832357 0.830976
-1.117587e-08 1 2.235174e-08 2.472094e-07 1 -4.808301e-07 0.669024 0.667643
-0.923879 -1 0.382682 -0.7843767 -0.5283886 0.324898 0.834310 0.832357
-1.117587e-08 1 2.235174e-08 2.472094e-07 1 -4.808301e-07 0.834310 0.669024
-0.980785 -1 0.195089 -0.832689 -0.5283887 0.1656334 0.999023 0.667643
-1.117587e-08 1 2.235174e-08 2.472094e-07 1 -4.808301e-07 0.999023 0.830976
-1 -1 -9.760261e-07 -0.8490027 -0.5283887 2.129875e-07 0.000977 0.665690
-1.117587e-08 1 2.235174e-08 2.472094e-07 1 -4.808301e-07 0.000977 0.502358
-0.980785 -1 -0.195092 -0.8326891 -0.5283886 -0.1656332 0.165690 0.500977
-1.117587e-08 1 2.235174e-08 2.472094e-07 1 -4.808301e-07 0.165690 0.664309
-0.923879 -1 -0.382685 -0.784376 -0.5283885 -0.3248998 0.167643 0.665690
-1.117587e-08 1 2.235174e-08 2.472094e-07 1 -4.808301e-07 0.167643 0.502358
-0.831469 -1 -0.555572 -0.7059194 -0.5283886 -0.4716815 0.332357 0.500977
-1.117587e-08 1 2.235174e-08 2.472094e-07 1 -4.808301e-07 0.332357 0.664309
-0.707106 -1 -0.707108 -0.6003346 -0.5283884 -0.6003366 0.334310 0.665690
-1.117587e-08 1 2.235174e-08 2.472094e-07 1 -4.808301e-07 0.334310 0.502358
-0.555569 -1 -0.831471 -0.4716787 -0.5283886 -0.7059212 0.499023 0.664309
-1.117587e-08 1 2.235174e-08 2.472094e-07 1 -4.808301e-07 0.335691 0.500977
-0.382682 -1 -0.92388 -0.3248975 -0.5283884 -0.784377 0.500977 0.665690
-1.117587e-08 1 2.235174e-08 2.472094e-07 1 -4.808301e-07 0.500977 0.502358
-0.195088 -1 -0.980786 -0.1947251 -0.06106768 -0.978955 0.665690 0.664309
-1.117587e-08 1 2.235174e-08 2.472094e-07 1 -4.808301e-07 0.502358 0.500977
-1.117587e-08 -1 -1 -4.598569e-08 -0.9981315 -0.06110216 0.665690 0.500977
-1.117587e-08 -1 -1 -4.598569e-08 -0.9981315 -0.06110216 0.209310 0.210691
0.195091 -1 -0.980786 0.1947251 -0.06106753 -0.978955 0.227786 0.229167
0.382684 -1 -0.92388 0.3248999 -0.5283884 -0.784376 0.209310 0.247642
-1.117587e-08 -1 -1 -4.598569e-08 -0.9981315 -0.06110216 0.167643 0.247642
0.382684 -1 -0.92388 0.3248999 -0.5283884 -0.784376 0.167643 0.209310
0.555571 -1 -0.83147 0.4716814 -0.5283885 -0.7059195 0.205976 0.209310
-1.117587e-08 -1 -1 -4.598569e-08 -0.9981315 -0.06110216 0.247642 0.250977
0.555571 -1 -0.83147 0.4716814 -0.5283885 -0.7059195 0.208333 0.290286
0.707107 -1 -0.7071069 0.6003366 -0.5283885 -0.6003346 0.169024 0.250977
-1.117587e-08 -1 -1 -4.598569e-08 -0.9981315 -0.06110216 0.165690 0.169024
0.707107 -1 -0.7071069 0.6003366 -0.5283885 -0.6003346 0.165690 0.249023
0.83147 -1 -0.55557 0.7059197 -0.5283884 -0.4716811 0.085691 0.249023
-1.117587e-08 -1 -1 -4.598569e-08 -0.9981315 -0.06110216 0.085691 0.250977
0.83147 -1 -0.55557 0.7059197 -0.5283884 -0.4716811 0.165690 0.250977
0.92388 -1 -0.382684 0.7843757 -0.5283885 -0.3249007 0.165690 0.330976
-1.117587e-08 -1 -1 -4.598569e-08 -0.9981315 -0.06110216 0.834310 0.335691
0.92388 -1 -0.382684 0.7843757 -0.5283885 -0.3249007 0.915286 0.416667
0.980786 -1 -0.195091 0.8326896 -0.5283886 -0.1656312 0.834310 0.497642
-1.117587e-08 -1 -1 -4.598569e-08 -0.9981315 -0.06110216 0.835691 0.499023
0.980786 -1 -0.195091 0.8326896 -0.5283886 -0.1656312 0.916667 0.418048
1 -1 2.235174e-08 0.8490028 -0.5283884 2.165373e-07 0.997642 0.499023
-1.117587e-08 -1 -1 -4.598569e-08 -0.9981315 -0.06110216 0.999023 0.497642
1 -1 2.235174e-08 0.8490028 -0.5283884 2.165373e-07 0.918048 0.416667
0.980786 -1 0.19509 0.8326895 -0.5283886 0.1656314 0.999023 0.335691
-1.117587e-08 -1 -1 -4.598569e-08 -0.9981315 -0.06110216 0.830976 0.665690
0.980786 -1 0.19509 0.8326895 -0.5283886 0.1656314 0.667643 0.665690
0.92388 -1 0.382683 0.7843761 -0.5283885 0.3248997 0.667643 0.502358
-1.117587e-08 -1 -1 -4.598569e-08 -0.9981315 -0.06110216 0.669024 0.500977
0.92388 -1 0.382683 0.7843761 -0.5283885 0.3248997 0.832357 0.500977
0.83147 -1 0.55557 0.7059194 -0.5283887 0.4716814 0.832357 0.664309
-1.117587e-08 -1 -1 -4.598569e-08 -0.9981315 -0.06110216 0.997642 0.665690
0.83147 -1 0.55557 0.7059194 -0.5283887 0.4716814 0.834310 0.665690
0.707107 -1 0.707106 0.6003355 -0.5283886 0.6003357 0.834310 0.502358
-1.117587e-08 -1 -1 -4.598569e-08 -0.9981315 -0.06110216 0.835691 0.500977
0.707107 -1 0.707106 0.6003355 -0.5283886 0.6003357 0.999023 0.500977
0.555571 -1 0.8314691 0.4716813 -0.5283886 0.7059194 0.999023 0.664309
-1.117587e-08 -1 -1 -4.598569e-08 -0.9981315 -0.06110216 0.164309 0.499023
0.555571 -1 0.8314691 0.4716813 -0.5283886 0.7059194 0.000977 0.499023
0.382684 -1 0.923879 0.3248992 -0.5283886 0.7843761 0.000977 0.335691
-1.117587e-08 -1 -1 -4.598569e-08 -0.9981315 -0.06110216 0.002358 0.334310
0.382684 -1 0.923879 0.3248992 -0.5283886 0.7843761 0.165690 0.334310
0.19509 -1 0.980785 0.1656329 -0.5283886 0.8326892 0.165690 0.497642
-1.117587e-08 -1 -1 -4.598569e-08 -0.9981315 -0.06110216 0.330976 0.499023
0.19509 -1 0.980785 0.1656329 -0.5283886 0.8326892 0.167643 0.499023
-1.117587e-08 -1 1 0 -0.5283887 0.8490027 0.167643 0.335691
-1.117587e-08 -1 -1 -4.598569e-08 -0.9981315 -0.06110216 0.332357 0.497642
-1.117587e-08 -1 1 0 -0.5283887 0.8490027 0.169024 0.334310
-0.19509 -1 0.980785 -0.1656329 -0.5283886 0.8326892 0.332357 0.334310
-1.117587e-08 -1 -1 -4.598569e-08 -0.9981315 -0.06110216 0.334310 0.335691
-0.19509 -1 0.980785 -0.1656329 -0.5283886 0.8326892 0.497642 0.499023
-0.382684 -1 0.923879 -0.3249002 -0.5283887 0.7843758 0.334310 0.499023
-1.117587e-08 -1 -1 -4.598569e-08 -0.9981315 -0.06110216 0.499023 0.497642
-0.382684 -1 0.923879 -0.3249002 -0.5283887 0.7843758 0.335691 0.334310
-0.55557 -1 0.8314691 -0.4716811 -0.5283886 0.7059196 0.499023 0.334310
-1.117587e-08 -1 -1 -4.598569e-08 -0.9981315 -0.06110216 0.500977 0.335691
-0.55557 -1 0.8314691 -0.4716811 -0.5283886 0.7059196 0.664309 0.499023
-0.707107 -1 0.707106 -0.6003355 -0.5283887 0.6003355 0.500977 0.499023
-1.117587e-08 -1 -1 -4.598569e-08 -0.9981315 -0.06110216 0.665690 0.497642
-0.707107 -1 0.707106 -0.6003355 -0.5283887 0.6003355 0.502358 0.334310
-0.83147 -1 0.5555691 -0.7059211 -0.5283887 0.4716787 0.665690 0.334310
-1.117587e-08 -1 -1 -4.598569e-08 -0.9981315 -0.06110216 0.667643 0.335691
-0.83147 -1 0.5555691 -0.7059211 -0.5283887 0.4716787 0.830976 0.499023
-0.923879 -1 0.382682 -0.7843767 -0.5283886 0.324898 0.667643 0.499023
-1.117587e-08 -1 -1 -4.598569e-08 -0.9981315 -0.06110216 0.832357 0.497642
-0.923879 -1 0.382682 -0.7843767 -0.5283886 0.324898 0.669024 0.334310
-0.980785 -1 0.195089 -0.832689 -0.5283887 0.1656334 0.832357 0.334310
-1.117587e-08 -1 -1 -4.598569e-08 -0.9981315 -0.06110216 0.835691 0.334310
-0.980785 -1 0.195089 -0.832689 -0.5283887 0.1656334 0.997642 0.334310
-1 -1 -9.760261e-07 -0.8490027 -0.5283887 2.129875e-07 0.916667 0.415286
-1.117587e-08 -1 -1 -4.598569e-08 -0.9981315 -0.06110216 0.000977 0.330976
-1 -1 -9.760261e-07 -0.8490027 -0.5283887 2.129875e-07 0.000977 0.169024
-0.980785 -1 -0.195092 -0.8326891 -0.5283886 -0.1656332 0.081952 0.250000
-1.117587e-08 -1 -1 -4.598569e-08 -0.9981315 -0.06110216 0.164309 0.332357
-0.980785 -1 -0.195092 -0.8326891 -0.5283886 -0.1656332 0.002358 0.332357
-0.923879 -1 -0.382685 -0.784376 -0.5283885 -0.3248998 0.083333 0.251381
-1.117587e-08 -1 -1 -4.598569e-08 -0.9981315 -0.06110216 0.082357 0.247642
-0.923879 -1 -0.382685 -0.784376 -0.5283885 -0.3248998 0.002358 0.167643
-0.831469 -1 -0.555572 -0.7059194 -0.5283886 -0.4716815 0.082357 0.167643
-1.117587e-08 -1 -1 -4.598569e-08 -0.9981315 -0.06110216 0.164309 0.167643
-0.831469 -1 -0.555572 -0.7059194 -0.5283886 -0.4716815 0.084310 0.247642
-0.707106 -1 -0.707108 -0.6003346 -0.5283884 -0.6003366 0.084310 0.167643
-1.117587e-08 -1 -1 -4.598569e-08 -0.9981315 -0.06110216 0.167643 0.330976
-0.707106 -1 -0.707108 -0.6003346 -0.5283884 -0.6003366 0.167643 0.252358
-0.555569 -1 -0.831471 -0.4716787 -0.5283886 -0.7059212 0.206952 0.291667
-1.117587e-08 -1 -1 -4.598569e-08 -0.9981315 -0.06110216 0.167643 0.169024
-0.555569 -1 -0.831471 -0.4716787 -0.5283886 -0.7059212 0.205976 0.207357
-0.382682 -1 -0.92388 -0.3248975 -0.5283884 -0.784377 0.167643 0.207357
-1.117587e-08 -1 -1 -4.598569e-08 -0.9981315 -0.06110216 0.247642 0.249023
-0.382682 -1 -0.92388 -0.3248975 -0.5283884 -0.784377 0.210691 0.249023
-0.195088 -1 -0.980786 -0.1947251 -0.06106768 -0.978955 0.229167 0.230548
3 0 23 1 
3 33 34 2 
3 35 36 3 
3 37 38 4 
3 39 40 5 
3 41 42 6 
3 43 44 7 
3 45 46 8 
3 47 48 9 
3 49 50 10 
3 51 52 11 
3 53 54 12 
3 55 56 13 
3 57 58 14 
3 59 60 15 
3 61 62 16 
3 63 64 17 
3 65 66 18 
3 67 68 19 
3 69 70 20 
3 71 72 21 
3 73 74 22 
3 75 76 24 
3 77 78 25 
3 79 80 26 
3 81 82 27 
3 83 84 28 
3 85 86 29 
3 87 88 30 
3 89 90 31 
3 91 92 32 
3 93 94 95 
3 96 97 98 
3 99 100 101 
3 102 103 104 
3 105 106 107 
3 108 109 110 
3 111 112 113 
3 114 115 116 
3 117 118 119 
3 120 121 122 
3 123 124 125 
3 126 127 128 
3 129 130 131 
3 132 133 134 
3 135 136 137 
3 138 139 140 
3 141 142 143 
3 144 145 146 
3 147 148 149 
3 150 151 152 
3 153 154 155 
3 156 157 158 
3 159 160 161 
3 162 163 164 
3 165 166 167 
3 168 169 170 
3 171 172 173 
3 174 175 176 
3 177 178 179 
3 180 181 182 
3 183 184 185 
