ply
format ascii 1.0
comment VCGLIB generated
element vertex 588
property float x
property float y
property float z
property float nx
property float ny
property float nz
property float texture_u
property float texture_v
element face 196
property list uchar int vertex_indices
end_header
0.133252 -0.022438 0.168566 0.08696359 -0.5338538 0.841093 0.540690 0.497642
0.011121 0.37403 -0.008877 -0.9563901 -0.2886246 0.0448765 0.085691 0.334310
0.04721 0.357315 0.034182 0.2379089 0.5061181 0.8290017 0.834310 0.997642
0.151777 0.02177 0.184615 -0.3028443 -0.5506018 0.7778965 0.582357 0.455976
0.184875 -0.024368 0.128696 0.3142093 -0.798578 -0.5133671 0.834310 0.835691
0.0345 0.399073 -0.051292 0.3352279 0.1197107 -0.9345008 0.914309 0.915690
0.062676 0.382357 -0.002121 0.9181169 0.39298 0.0512656 0.290286 0.375000
0.220746 0.004102 0.175141 0.2667973 -0.8997133 0.3454494 0.582357 0.497642
0.022907 0.380494 0.009784 -0.8034126 0.02572979 0.5948666 0.125000 0.373619
0.004877 0.410911 -0.052646 -0.6630157 0.3756365 -0.6475396 0.835691 0.999023
0.042241 0.416481 -0.001001 0.6611733 0.5252218 0.5357162 0.249023 0.414309
0.048296 0.405536 -0.034183 0.8255657 0.06275988 -0.5608053 0.834310 0.915690
0.02253 0.425503 -0.026522 -0.2511531 0.967436 0.03145865 0.542643 0.497642
0.130811 0.010524 0.171519 -0.1437511 -0.3062039 0.9410498 0.544024 0.457357
0.153085 -0.029113 0.14089 0.2458551 -0.8993987 0.3614379 0.522214 0.479167
0.200913 0.008847 0.202817 -0.0151938 -0.8472064 0.5310466 0.582357 0.419024
0.211414 -0.010133 0.145274 0.7919009 -0.5564666 -0.2514717 0.997642 0.999023
0.176999 -0.010133 0.171853 0.04968638 -0.8039267 0.5926492 0.540690 0.460691
-0.29254 -0.015279 0.29254 0 1 0 0.664309 0.999023
0.29254 -0.015279 0.29254 0 -1 0 0.330976 0.999023
-0.29254 -0.015279 -0.29254 0 1 0 0.665690 0.667643
0.29254 -0.015279 -0.29254 0 -1 0 0.332357 0.667643
-0.188938 -9e-05 0.139476 0.1906052 0.01228406 0.98159 0.167643 0.419024
0.035792 0.267756 0.092486 0.04664032 0.5121234 -0.8576446 0.502358 0.500977
0.061698 0.24721 0.074742 0.8950456 0.3560229 -0.268591 0.415690 0.502358
-0.153448 -0.028239 0.115167 0.7518393 -0.5265366 0.3968587 0.169024 0.415690
-0.201596 0.007253 0.088533 -0.7251954 0.5828487 -0.3665775 0.419024 0.500977
-0.009019 0.229679 0.061212 0.08369344 0.9324516 -0.3514675 0.499023 0.372642
0.016886 0.209132 0.043467 0.306448 -0.3250774 -0.8946587 0.375000 0.543048
-0.166105 -0.020895 0.064223 -0.1435908 -0.7025929 -0.696954 0.560142 0.519857
0.050285 0.25659 0.089811 -0.006025029 0.6199765 -0.7845972 0.540690 0.521810
-0.005469 0.234389 0.082222 -0.1173209 0.8558646 -0.5037177 0.622642 0.415690
0.029071 0.206994 0.058563 0.8169116 -0.2473997 -0.5210075 0.247642 0.415690
0.002394 0.220299 0.046142 -0.3809231 0.2314431 -0.8951713 0.335691 0.500977
0.019504 0.230097 0.069113 0.04362813 0.6862304 -0.7260747 0.540690 0.519857
-0.169083 -0.015388 0.135812 0.4140019 -0.183108 0.8916692 0.206952 0.458333
-0.201182 0.008273 0.118056 -0.6972144 0.6512492 0.2996109 0.375000 0.623619
-0.153862 -0.029259 0.085643 0.1768485 -0.9654589 -0.1913473 0.208333 0.376381
-0.18596 -0.005597 0.067888 -0.3961066 0.2450936 -0.8848891 0.414309 0.500977
-0.177522 -0.010493 0.10185 -0.6057822 -0.7948182 0.03594508 0.539309 0.500977
0.027358 0.006096 0.256496 0.9792802 0.2025102 -0.0001564612 0.915690 0.752358
-0.00536 0.169047 -0.11508 -0.7461897 0.618293 -0.2468092 0.627358 0.374023
-0.033909 0.139859 -0.129495 -0.3232443 -0.03260808 -0.9457536 0.414309 0.499023
-0.011753 -0.033891 0.236749 0.1257806 -0.9618837 0.2428149 0.999023 0.669024
-0.026154 0.033471 0.26778 -0.145445 0.9130523 0.3810266 0.999023 0.830976
-0.041177 0.162603 -0.047393 -0.1817262 0.8483945 -0.4971945 0.646810 0.518476
-0.069725 0.133415 -0.061807 -0.9736822 -0.2127987 -0.08160781 0.541667 0.543048
-0.065266 -0.006516 0.248033 -0.983507 -0.1697287 -0.06249901 0.623619 0.625000
-0.013124 0.151123 -0.12366 -0.6477365 0.7183064 -0.2539163 0.605143 0.500977
-0.017185 0.159889 -0.054537 -0.3152007 0.9074656 -0.2777677 0.664309 0.374023
-0.055249 0.120973 -0.073756 -0.6688672 -0.4606539 -0.5834507 0.919024 0.749023
-0.061961 0.151339 -0.053227 -0.7734476 0.576449 0.2636011 0.415690 0.419024
-0.036919 0.146153 -0.077019 -0.5856861 0.7398024 -0.331156 0.605548 0.395833
0.016721 -0.01846 0.244742 0.7742151 -0.5487762 -0.3153341 0.915690 0.832357
0.00712 0.026448 0.265429 0.7378795 0.6410103 0.2112815 0.541667 0.623619
-0.045028 -0.026868 0.2391 -0.3893988 -0.8691768 0.3047956 0.999023 0.749023
-0.054629 0.01804 0.259787 -0.7587525 0.5927033 0.2701805 0.415690 0.497642
-0.018954 -0.00021 0.252264 -0.02521579 -0.4227073 0.9059154 0.622642 0.542643
0.168768 -0.005491 -0.099425 -0.3206149 -0.2954728 -0.8999455 0.417643 0.585691
-0.26381 0.026962 0.041407 -0.2642903 0.5611976 0.7843519 0.664309 0.375977
-0.259351 -0.006299 0.07644 -0.1197032 -0.9481521 -0.2944125 0.752358 0.749023
0.174877 -0.021415 -0.051429 0.4913779 -0.8512254 -0.1842906 0.917643 0.914309
0.18363 0.032863 -0.044619 0.0582551 0.9973195 0.04427332 0.832357 0.830976
-0.183083 0.049593 0.061037 -0.7056917 0.6411 0.3016455 0.459310 0.394857
-0.178624 0.016332 0.096071 -0.1726719 -0.02581854 0.984641 0.478190 0.398191
0.189738 -0.012705 0.003377 0.1681901 -0.5265536 0.8333387 0.415690 0.585691
-0.263389 0.005666 0.052256 -0.3292352 0.6436165 0.6909139 0.647214 0.395833
-0.19563 0.041629 0.037057 -0.4961601 0.782954 0.3752441 0.627358 0.375977
-0.189685 -0.002719 0.083768 -0.2000524 -0.6338984 0.7470956 0.997642 0.834310
-0.179045 0.037628 0.085221 -0.6786546 0.4684804 0.5656449 0.476809 0.394857
-0.207789 0.020616 0.064824 -0.4214348 0.6319258 0.6504327 0.647214 0.354167
0.169346 -0.005023 -0.084561 0.6112332 -0.7583148 -0.2266112 0.456952 0.625000
0.175181 0.02128 -0.080021 -0.2090041 0.6062375 -0.7673289 0.749023 0.667643
0.183326 -0.009833 -0.016027 -0.01854607 -0.9937945 0.1096745 0.917643 0.834310
0.189161 0.016471 -0.011486 0.2158815 0.714331 0.6656774 0.419024 0.665690
0.179254 -0.009098 -0.048024 0.9584329 -0.2046618 -0.1987966 0.436523 0.398191
0.071905 -0.017392 -0.190254 -0.4996462 -0.8302903 -0.2469247 0.084310 0.500977
-0.068637 0.277862 0.070086 -0.9050636 -0.425229 -0.006333596 0.080976 0.584310
-0.027132 0.293991 0.144832 -0.08679358 -0.7315957 0.6761913 0.669024 0.834310
0.140733 -0.017392 -0.170518 0.2090418 -0.6518364 -0.7289793 0.664309 0.582357
0.08477 0.036908 -0.235119 0.2090334 -0.6518326 -0.7289852 0.665690 0.539309
0.007254 0.24589 0.004321 -0.2663064 0.554162 -0.7886606 0.000977 0.417643
0.042496 0.302568 0.027028 0.8147082 0.5366861 -0.2195874 0.750000 0.751381
0.153597 0.036908 -0.215383 0.2090373 -0.6518334 -0.7289833 0.624023 0.580976
-0.045082 0.271256 0.082747 -0.5084603 -0.7148129 0.4801152 0.084310 0.580976
-0.023233 0.2903 0.035037 -0.579602 0.6782414 -0.451719 0.748619 0.916667
0.041751 0.286632 0.105229 0.3902543 -0.5455999 0.741635 0.000977 0.502358
0.018941 0.309174 0.014367 -0.251289 0.9036026 -0.346924 0.622642 0.417643
0.004519 0.308202 0.064662 -0.1318734 0.9875567 0.08568119 0.457357 0.622642
0.104175 -0.026442 -0.172909 0.2090311 -0.6518369 -0.7289819 0.644452 0.562500
0.066866 0.009758 -0.215976 -0.5960851 -0.4246931 -0.6814091 0.084310 0.499023
0.158636 0.009758 -0.189661 0.2090423 -0.6518369 -0.7289787 0.645833 0.563881
0.121328 0.045958 -0.232728 0.2090358 -0.6518287 -0.7289879 0.645833 0.522214
0.112751 0.009758 -0.202819 0.209034 -0.6518354 -0.7289824 0.625977 0.455976
-0.165691 -0.005416 -0.211656 -0.9220729 0.3868894 0.009910121 0.249023 0.665690
0.013026 0.417236 0.03246 0.9093861 0.3506796 -0.223698 0.627358 0.624023
0.041862 0.386889 0.066076 0.5328481 0.3706955 0.7606956 0.085691 0.582357
-0.126186 -0.02354 -0.165603 -0.1096351 -0.7620248 0.6381994 0.082357 0.585691
-0.108248 -0.001539 -0.257431 0.1826252 0.4632332 -0.8672156 0.250977 0.499023
0.028374 0.351418 -0.040124 0.4795198 0.8713351 -0.1040959 0.439858 0.396810
0.05721 0.321071 -0.006509 0.8019305 0.5320351 0.2717464 0.478190 0.356524
-0.068743 -0.019663 -0.211378 0.9429587 -0.332387 -0.01865419 0.249023 0.500977
0.020456 0.401591 0.054837 -0.04029331 0.7195521 0.6932685 0.084310 0.665690
0.00503 0.361328 -0.025444 0.5418645 0.7843648 -0.3019188 0.585691 0.499023
0.043478 0.320866 0.019377 0.90855 0.3984725 0.1255256 0.664309 0.499023
0.04978 0.336716 -0.028885 0.7141879 0.6996955 0.01902392 0.480143 0.374023
0.03001 0.355962 0.005448 0.8151619 0.5386531 -0.2129881 0.625977 0.499023
-0.155512 -0.02685 -0.181 -0.7816963 -0.02202522 0.6232703 0.169024 0.665690
-0.143553 0.003452 -0.242219 -0.2530007 0.576322 -0.7770738 0.165690 0.497642
-0.09088 -0.028531 -0.180815 0.3245164 -0.8866147 0.3295506 0.082357 0.665690
-0.078922 -0.02168 -0.242033 0.7612828 0.1069692 -0.6395359 0.165690 0.664309
-0.117217 -0.024265 -0.211517 -0.1531277 -0.9503679 -0.270837 0.665690 0.585691
0.133252 -0.022438 0.168566 -0.8856491 -0.3874041 -0.2560153 0.084310 0.335691
0.011121 0.37403 -0.008877 -0.8491043 0.3296824 0.4127122 0.582357 0.519857
0.04721 0.357315 0.034182 -0.6224744 0.1538365 0.7673722 0.208333 0.373619
0.04721 0.357315 0.034182 -0.3834463 0.4480396 0.8076073 0.580976 0.499023
0.151777 0.02177 0.184615 -0.2503636 0.3300274 0.9101648 0.834310 0.917643
0.151777 0.02177 0.184615 -0.5865964 0.1720028 0.7914037 0.252358 0.334310
0.062676 0.382357 -0.002121 0.8576677 0.5140388 -0.01304838 0.582357 0.580976
0.220746 0.004102 0.175141 0.9134582 0.4041182 0.04777893 0.749023 0.999023
0.022907 0.380494 0.009784 -0.5933971 0.435389 0.6769907 0.542643 0.460691
0.042241 0.416481 -0.001001 0.1202796 0.8716162 0.4752031 0.561119 0.479167
0.048296 0.405536 -0.034183 0.6184819 0.723614 -0.3063706 0.582357 0.521810
0.130811 0.010524 0.171519 -0.8212622 0.001934202 0.5705477 0.164309 0.334310
0.153085 -0.029113 0.14089 -0.546474 -0.474114 -0.6903493 0.915690 0.919024
0.200913 0.008847 0.202817 0.4575487 0.5294203 0.7143973 0.914309 0.917643
-0.29254 -0.015279 0.29254 0 -1 0 0.000977 0.999023
0.29254 -0.015279 0.29254 0 1 0 0.334310 0.999023
-0.29254 -0.015279 -0.29254 0 -1 0 0.000977 0.669024
0.29254 -0.015279 -0.29254 0 1 0 0.334310 0.669024
-0.188938 -9e-05 0.139476 -0.5809992 0.5911965 0.5593985 0.417643 0.580976
-0.188938 -9e-05 0.139476 -0.6057755 -0.7948227 0.03595933 0.521810 0.518476
0.035792 0.267756 0.092486 0.1906247 0.01226925 0.9815863 0.167643 0.497642
0.035792 0.267756 0.092486 -0.6149385 0.6047392 0.5061041 0.417643 0.502358
-0.153448 -0.028239 0.115167 -0.605786 -0.7948145 0.03596275 0.563477 0.500977
-0.201596 0.007253 0.088533 -0.6057782 -0.7948216 0.03593921 0.624023 0.521810
-0.009019 0.229679 0.061212 -0.7231538 0.5795029 -0.375799 0.375000 0.540286
0.016886 0.209132 0.043467 0.5550232 0.615368 -0.5597067 0.481524 0.394857
0.050285 0.25659 0.089811 0.4320496 -0.1997309 0.8794549 0.167643 0.335691
-0.005469 0.234389 0.082222 -0.6856629 0.6425436 0.3420589 0.456952 0.541667
0.002394 0.220299 0.046142 0.2848643 0.7866695 -0.5477257 0.497642 0.355143
-0.169083 -0.015388 0.135812 -0.6057765 -0.7948216 0.03596664 0.561523 0.500977
-0.201182 0.008273 0.118056 -0.6057838 -0.7948166 0.03595528 0.521810 0.500977
-0.18596 -0.005597 0.067888 -0.6057725 -0.7948266 0.03592344 0.624023 0.519857
0.027358 0.006096 0.256496 -0.02522614 -0.4227055 0.905916 0.605143 0.560142
-0.00536 0.169047 -0.11508 0.9813669 -0.1285667 -0.1427921 0.835691 0.832357
-0.026154 0.033471 0.26778 -0.02521346 -0.4227203 0.9059095 0.603190 0.540690
-0.041177 0.162603 -0.047393 -0.155338 0.9113628 0.3811667 0.376381 0.458333
-0.069725 0.133415 -0.061807 -0.5099602 0.4108557 -0.7557369 0.643476 0.519857
-0.065266 -0.006516 0.248033 -0.02520658 -0.4227028 0.9059178 0.601809 0.519857
-0.013124 0.151123 -0.12366 0.7567049 -0.5684165 -0.3229558 0.419024 0.499023
-0.017185 0.159889 -0.054537 0.6929191 0.6808115 0.2374004 0.580976 0.584310
-0.017185 0.159889 -0.054537 0.2106646 0.9078215 0.3626023 0.582357 0.664309
-0.061961 0.151339 -0.053227 -0.4281705 0.6772838 -0.5982949 0.625977 0.539309
0.016721 -0.01846 0.244742 -0.02522714 -0.4227005 0.9059183 0.584310 0.563477
0.00712 0.026448 0.265429 0.2166321 0.9069375 0.3612962 0.999023 0.997642
0.00712 0.026448 0.265429 -0.02522028 -0.4227149 0.9059117 0.605143 0.542643
-0.054629 0.01804 0.259787 -0.02520892 -0.422713 0.905913 0.605143 0.540690
0.168768 -0.005491 -0.099425 0.976917 -0.2113084 -0.03133521 0.499023 0.398191
-0.26381 0.026962 0.041407 -0.2918549 -0.2744421 -0.9162436 0.417643 0.664309
-0.259351 -0.006299 0.07644 -0.2728424 0.7710232 0.5753958 0.665690 0.335691
0.18363 0.032863 -0.044619 0.9750858 -0.08506476 -0.2048699 0.647214 0.437500
-0.183083 0.049593 0.061037 0.06132425 0.9966662 0.05381403 0.458333 0.626381
0.189738 -0.012705 0.003377 0.9319801 -0.1497476 -0.3301346 0.476809 0.375977
-0.263389 0.005666 0.052256 -0.2248876 -0.721455 -0.6549261 0.835691 0.834310
-0.19563 0.041629 0.037057 -0.1887167 0.6563572 -0.7304665 0.669024 0.667643
-0.19563 0.041629 0.037057 -0.0409414 0.9544466 -0.2955599 0.002358 0.500977
-0.179045 0.037628 0.085221 0.2191219 0.6982083 0.6815357 0.497642 0.665690
0.175181 0.02128 -0.080021 -0.04323853 0.9526339 -0.3010303 0.834310 0.669024
0.175181 0.02128 -0.080021 0.9690905 -0.139297 -0.2036171 0.499023 0.414309
0.183326 -0.009833 -0.016027 0.9589452 -0.1869755 -0.2132238 0.481524 0.396810
0.189161 0.016471 -0.011486 0.9667475 -0.1366177 -0.2161825 0.457357 0.377358
-0.068637 0.277862 0.070086 0.04863882 0.9197775 0.3894144 0.624023 0.455976
-0.027132 0.293991 0.144832 -0.2416828 0.9673698 0.07606075 0.419024 0.584310
0.140733 -0.017392 -0.170518 0.5078654 -0.4690295 0.7225539 0.080976 0.582357
0.08477 0.036908 -0.235119 -0.5443485 0.5367259 -0.6446783 0.000977 0.415690
0.042496 0.302568 0.027028 0.2677467 0.9550546 0.1272102 0.664309 0.417643
0.153597 0.036908 -0.215383 0.8212765 0.5318615 -0.2064661 0.167643 0.584310
-0.045082 0.271256 0.082747 -0.3774986 0.9161242 0.1349497 0.459310 0.584310
0.041751 0.286632 0.105229 0.944586 0.3197766 0.07416364 0.830976 0.832357
0.041751 0.286632 0.105229 0.278832 0.9302037 0.238692 0.457357 0.584310
0.018941 0.309174 0.014367 0.07361038 0.6976414 -0.7126555 0.080976 0.417643
0.104175 -0.026442 -0.172909 -0.166787 -0.6891767 0.7051366 0.164309 0.500977
0.158636 0.009758 -0.189661 0.8375359 -0.1914625 0.5117379 0.000977 0.582357
0.158636 0.009758 -0.189661 0.9494997 0.2924152 0.1137705 0.669024 0.832357
0.121328 0.045958 -0.232728 0.1699085 0.7423782 -0.6480785 0.000977 0.497642
-0.165691 -0.005416 -0.211656 -0.3187667 -0.823237 -0.4697538 0.665690 0.622642
0.013026 0.417236 0.03246 -0.9336333 0.2424818 0.2636884 0.249023 0.585691
-0.108248 -0.001539 -0.257431 -0.3187681 -0.8232401 -0.4697475 0.625977 0.585691
0.028374 0.351418 -0.040124 0.1504565 0.4750694 -0.8669902 0.085691 0.584310
0.05721 0.321071 -0.006509 0.927169 -0.3715646 0.04793199 0.332357 0.584310
-0.068743 -0.019663 -0.211378 0.09446467 -0.9927915 -0.07376578 0.622642 0.584310
0.00503 0.361328 -0.025444 -0.2465451 0.5749317 -0.7801724 0.002358 0.334310
0.00503 0.361328 -0.025444 -0.7127717 0.5517043 -0.4331039 0.249023 0.499023
0.043478 0.320866 0.019377 0.4384522 -0.5676768 0.6967803 0.002358 0.665690
0.04978 0.336716 -0.028885 0.7904119 0.07415213 -0.6080711 0.165690 0.584310
-0.155512 -0.02685 -0.181 -0.1278893 -0.9618216 -0.2419579 0.647214 0.645833
-0.143553 0.003452 -0.242219 -0.7471684 0.5426565 -0.3837492 0.332357 0.415690
-0.143553 0.003452 -0.242219 -0.3187733 -0.8232345 -0.4697537 0.647214 0.604167
-0.078922 -0.02168 -0.242033 -0.12145 -0.964592 -0.2341198 0.664309 0.584310
0.011121 0.37403 -0.008877 -0.9563901 -0.2886246 0.0448765 0.084310 0.414309
0.130811 0.010524 0.171519 -0.8212622 0.001934202 0.5705477 0.123619 0.375000
0.200913 0.008847 0.202817 0.4575487 0.5294203 0.7143973 0.249023 0.335691
0.04721 0.357315 0.034182 0.2379089 0.5061181 0.8290017 0.209714 0.375000
0.184875 -0.024368 0.128696 0.3142093 -0.798578 -0.5133671 0.917643 0.999023
0.048296 0.405536 -0.034183 0.8255657 0.06275988 -0.5608053 0.917643 0.919024
0.011121 0.37403 -0.008877 -0.9563901 -0.2886246 0.0448765 0.915690 0.999023
0.011121 0.37403 -0.008877 -0.9563901 -0.2886246 0.0448765 0.750977 0.919024
0.153085 -0.029113 0.14089 -0.546474 -0.474114 -0.6903493 0.830976 0.999023
0.133252 -0.022438 0.168566 -0.8856491 -0.3874041 -0.2560153 0.750977 0.999023
0.022907 0.380494 0.009784 -0.5933971 0.435389 0.6769907 0.562500 0.480548
0.042241 0.416481 -0.001001 0.1202796 0.8716162 0.4752031 0.544024 0.499023
0.022907 0.380494 0.009784 -0.5933971 0.435389 0.6769907 0.564858 0.519857
0.02253 0.425503 -0.026522 -0.2511531 0.967436 0.03145865 0.582357 0.502358
0.011121 0.37403 -0.008877 -0.8491043 0.3296824 0.4127122 0.502358 0.499023
0.02253 0.425503 -0.026522 -0.2511531 0.967436 0.03145865 0.520833 0.480548
0.004877 0.410911 -0.052646 -0.6630157 0.3756365 -0.6475396 0.539309 0.499023
0.02253 0.425503 -0.026522 -0.2511531 0.967436 0.03145865 0.564858 0.521810
0.0345 0.399073 -0.051292 0.3352279 0.1197107 -0.9345008 0.582357 0.539309
0.0345 0.399073 -0.051292 0.3352279 0.1197107 -0.9345008 0.582357 0.544024
0.004877 0.410911 -0.052646 -0.6630157 0.3756365 -0.6475396 0.582357 0.561523
0.02253 0.425503 -0.026522 -0.2511531 0.967436 0.03145865 0.564858 0.561523
0.042241 0.416481 -0.001001 0.1202796 0.8716162 0.4752031 0.582357 0.563477
0.048296 0.405536 -0.034183 0.6184819 0.723614 -0.3063706 0.564858 0.563477
0.042241 0.416481 -0.001001 0.1202796 0.8716162 0.4752031 0.561523 0.560142
0.048296 0.405536 -0.034183 0.6184819 0.723614 -0.3063706 0.544024 0.542643
0.02253 0.425503 -0.026522 -0.2511531 0.967436 0.03145865 0.561523 0.542643
0.133252 -0.022438 0.168566 0.08696359 -0.5338538 0.841093 0.562500 0.438881
0.176999 -0.010133 0.171853 0.04968638 -0.8039267 0.5926492 0.580976 0.457357
0.176999 -0.010133 0.171853 0.04968638 -0.8039267 0.5926492 0.563881 0.437500
0.151777 0.02177 0.184615 -0.3028443 -0.5506018 0.7778965 0.563477 0.542643
0.130811 0.010524 0.171519 -0.1437511 -0.3062039 0.9410498 0.580976 0.542643
0.176999 -0.010133 0.171853 0.04968638 -0.8039267 0.5926492 0.563477 0.560142
0.200913 0.008847 0.202817 -0.0151938 -0.8472064 0.5310466 0.563881 0.479167
0.176999 -0.010133 0.171853 0.04968638 -0.8039267 0.5926492 0.582357 0.460691
0.220746 0.004102 0.175141 0.2667973 -0.8997133 0.3454494 0.544024 0.459310
0.176999 -0.010133 0.171853 0.04968638 -0.8039267 0.5926492 0.580976 0.459310
0.211414 -0.010133 0.145274 0.7919009 -0.5564666 -0.2514717 0.562500 0.477786
0.184875 -0.024368 0.128696 0.3142093 -0.798578 -0.5133671 0.625977 0.377358
0.211414 -0.010133 0.145274 0.7919009 -0.5564666 -0.2514717 0.644452 0.395833
0.176999 -0.010133 0.171853 0.04968638 -0.8039267 0.5926492 0.625977 0.414309
0.176999 -0.010133 0.171853 0.04968638 -0.8039267 0.5926492 0.627358 0.415690
0.153085 -0.029113 0.14089 0.2458551 -0.8993987 0.3614379 0.645833 0.397214
0.184875 -0.024368 0.128696 0.3142093 -0.798578 -0.5133671 0.664309 0.415690
0.022907 0.380494 0.009784 -0.8034126 0.02572979 0.5948666 0.169024 0.334310
0.130811 0.010524 0.171519 -0.8212622 0.001934202 0.5705477 0.247642 0.334310
0.04721 0.357315 0.034182 -0.6224744 0.1538365 0.7673722 0.330976 0.334310
0.130811 0.010524 0.171519 -0.8212622 0.001934202 0.5705477 0.291667 0.373619
0.042241 0.416481 -0.001001 0.6611733 0.5252218 0.5357162 0.250977 0.414309
0.200913 0.008847 0.202817 0.4575487 0.5294203 0.7143973 0.250977 0.335691
0.062676 0.382357 -0.002121 0.9181169 0.39298 0.0512656 0.669024 0.999023
0.200913 0.008847 0.202817 0.4575487 0.5294203 0.7143973 0.749023 0.919024
0.062676 0.382357 -0.002121 0.9181169 0.39298 0.0512656 0.752358 0.915690
0.220746 0.004102 0.175141 0.9134582 0.4041182 0.04777893 0.832357 0.835691
0.211414 -0.010133 0.145274 0.7919009 -0.5564666 -0.2514717 0.832357 0.915690
0.062676 0.382357 -0.002121 0.9181169 0.39298 0.0512656 0.208333 0.456952
0.211414 -0.010133 0.145274 0.7919009 -0.5564666 -0.2514717 0.169024 0.417643
0.048296 0.405536 -0.034183 0.8255657 0.06275988 -0.5608053 0.247642 0.417643
0.184875 -0.024368 0.128696 0.3142093 -0.798578 -0.5133671 0.832357 0.917643
0.153085 -0.029113 0.14089 -0.546474 -0.474114 -0.6903493 0.832357 0.997642
0.0345 0.399073 -0.051292 0.3352279 0.1197107 -0.9345008 0.752358 0.917643
0.153085 -0.029113 0.14089 -0.546474 -0.474114 -0.6903493 0.917643 0.752358
0.004877 0.410911 -0.052646 -0.6630157 0.3756365 -0.6475396 0.997642 0.832357
0.0345 0.399073 -0.051292 0.3352279 0.1197107 -0.9345008 0.917643 0.832357
-0.29254 -0.015279 -0.29254 0 -1 0 0.002358 0.667643
0.29254 -0.015279 0.29254 0 -1 0 0.332357 0.997642
0.29254 -0.015279 -0.29254 0 1 0 0.335691 0.667643
-0.29254 -0.015279 0.29254 0 1 0 0.665690 0.997642
0.035792 0.267756 0.092486 0.1906247 0.01226925 0.9815863 0.206952 0.375000
-0.169083 -0.015388 0.135812 0.4140019 -0.183108 0.8916692 0.167643 0.414309
-0.153448 -0.028239 0.115167 0.7518393 -0.5265366 0.3968587 0.415690 0.580976
0.029071 0.206994 0.058563 0.8169116 -0.2473997 -0.5210075 0.376381 0.541667
-0.009019 0.229679 0.061212 -0.7231538 0.5795029 -0.375799 0.497642 0.500977
-0.18596 -0.005597 0.067888 -0.3961066 0.2450936 -0.8848891 0.458333 0.540286
-0.188938 -9e-05 0.139476 -0.5809992 0.5911965 0.5593985 0.335691 0.584310
-0.005469 0.234389 0.082222 -0.6856629 0.6425436 0.3420589 0.414309 0.584310
0.061698 0.24721 0.074742 0.8950456 0.3560229 -0.268591 0.523191 0.519857
0.029071 0.206994 0.058563 0.8169116 -0.2473997 -0.5210075 0.540690 0.502358
0.061698 0.24721 0.074742 0.8950456 0.3560229 -0.268591 0.540690 0.539309
0.019504 0.230097 0.069113 0.04362813 0.6862304 -0.7260747 0.523191 0.521810
0.050285 0.25659 0.089811 -0.006025029 0.6199765 -0.7845972 0.519857 0.500977
0.019504 0.230097 0.069113 0.04362813 0.6862304 -0.7260747 0.519857 0.518476
0.019504 0.230097 0.069113 0.04362813 0.6862304 -0.7260747 0.604167 0.397214
0.035792 0.267756 0.092486 0.04664032 0.5121234 -0.8576446 0.585691 0.415690
-0.005469 0.234389 0.082222 -0.1173209 0.8558646 -0.5037177 0.490964 0.364583
0.019504 0.230097 0.069113 0.04362813 0.6862304 -0.7260747 0.499023 0.356524
-0.009019 0.229679 0.061212 0.08369344 0.9324516 -0.3514675 0.489583 0.363202
0.019504 0.230097 0.069113 0.04362813 0.6862304 -0.7260747 0.481524 0.355143
0.002394 0.220299 0.046142 0.2848643 0.7866695 -0.5477257 0.489583 0.386798
0.019504 0.230097 0.069113 0.04362813 0.6862304 -0.7260747 0.497642 0.394857
0.016886 0.209132 0.043467 0.5550232 0.615368 -0.5597067 0.499023 0.377358
0.019504 0.230097 0.069113 0.04362813 0.6862304 -0.7260747 0.499023 0.393476
0.029071 0.206994 0.058563 0.8169116 -0.2473997 -0.5210075 0.490964 0.385417
-0.188938 -9e-05 0.139476 -0.6057755 -0.7948227 0.03595933 0.561523 0.518476
-0.177522 -0.010493 0.10185 -0.6057822 -0.7948182 0.03594508 0.544024 0.500977
-0.169083 -0.015388 0.135812 -0.6057765 -0.7948216 0.03596664 0.580976 0.500977
-0.177522 -0.010493 0.10185 -0.6057822 -0.7948182 0.03594508 0.563477 0.518476
-0.177522 -0.010493 0.10185 -0.6057822 -0.7948182 0.03594508 0.560142 0.521810
-0.153862 -0.029259 0.085643 0.1768485 -0.9654589 -0.1913473 0.542643 0.539309
-0.153448 -0.028239 0.115167 -0.605786 -0.7948145 0.03596275 0.542643 0.521810
-0.153862 -0.029259 0.085643 0.1768485 -0.9654589 -0.1913473 0.542643 0.519857
-0.177522 -0.010493 0.10185 -0.6057822 -0.7948182 0.03594508 0.542643 0.502358
-0.166105 -0.020895 0.064223 -0.1435908 -0.7025929 -0.696954 0.606524 0.519857
-0.177522 -0.010493 0.10185 -0.6057822 -0.7948182 0.03594508 0.624023 0.502358
-0.18596 -0.005597 0.067888 -0.6057725 -0.7948266 0.03592344 0.624023 0.539309
-0.177522 -0.010493 0.10185 -0.6057822 -0.7948182 0.03594508 0.606524 0.521810
-0.201596 0.007253 0.088533 -0.6057782 -0.7948216 0.03593921 0.603190 0.500977
-0.177522 -0.010493 0.10185 -0.6057822 -0.7948182 0.03594508 0.603190 0.518476
-0.201182 0.008273 0.118056 -0.6057838 -0.7948166 0.03595528 0.585691 0.500977
-0.153448 -0.028239 0.115167 0.7518393 -0.5265366 0.3968587 0.334310 0.664309
0.061698 0.24721 0.074742 0.8950456 0.3560229 -0.268591 0.334310 0.585691
0.050285 0.25659 0.089811 0.4320496 -0.1997309 0.8794549 0.373619 0.625000
-0.153448 -0.028239 0.115167 0.7518393 -0.5265366 0.3968587 0.373619 0.541667
0.050285 0.25659 0.089811 0.4320496 -0.1997309 0.8794549 0.334310 0.580976
-0.169083 -0.015388 0.135812 0.4140019 -0.183108 0.8916692 0.334310 0.502358
0.029071 0.206994 0.058563 0.8169116 -0.2473997 -0.5210075 0.414309 0.582357
-0.153862 -0.029259 0.085643 0.1768485 -0.9654589 -0.1913473 0.335691 0.582357
0.016886 0.209132 0.043467 0.306448 -0.3250774 -0.8946587 0.335691 0.417643
-0.153862 -0.029259 0.085643 0.1768485 -0.9654589 -0.1913473 0.414309 0.417643
-0.166105 -0.020895 0.064223 -0.1435908 -0.7025929 -0.696954 0.375000 0.456952
-0.166105 -0.020895 0.064223 -0.1435908 -0.7025929 -0.696954 0.373619 0.458333
-0.18596 -0.005597 0.067888 -0.3961066 0.2450936 -0.8848891 0.334310 0.497642
0.002394 0.220299 0.046142 -0.3809231 0.2314431 -0.8951713 0.334310 0.419024
-0.166105 -0.020895 0.064223 -0.1435908 -0.7025929 -0.696954 0.334310 0.414309
0.002394 0.220299 0.046142 -0.3809231 0.2314431 -0.8951713 0.334310 0.335691
0.016886 0.209132 0.043467 0.306448 -0.3250774 -0.8946587 0.373619 0.375000
-0.009019 0.229679 0.061212 -0.7231538 0.5795029 -0.375799 0.335691 0.415690
-0.201596 0.007253 0.088533 -0.7251954 0.5828487 -0.3665775 0.375000 0.376381
-0.201182 0.008273 0.118056 -0.6972144 0.6512492 0.2996109 0.414309 0.415690
-0.009019 0.229679 0.061212 -0.7231538 0.5795029 -0.375799 0.456952 0.458333
-0.201182 0.008273 0.118056 -0.6972144 0.6512492 0.2996109 0.417643 0.497642
-0.005469 0.234389 0.082222 -0.6856629 0.6425436 0.3420589 0.417643 0.419024
0.016721 -0.01846 0.244742 0.7742151 -0.5487762 -0.3153341 0.497642 0.499023
-0.00536 0.169047 -0.11508 0.9813669 -0.1285667 -0.1427921 0.458333 0.459714
-0.011753 -0.033891 0.236749 0.1257806 -0.9618837 0.2428149 0.335691 0.499023
-0.055249 0.120973 -0.073756 -0.6688672 -0.4606539 -0.5834507 0.375000 0.459714
-0.041177 0.162603 -0.047393 -0.155338 0.9113628 0.3811667 0.919024 0.750977
-0.054629 0.01804 0.259787 -0.7587525 0.5927033 0.2701805 0.999023 0.750977
0.027358 0.006096 0.256496 0.9792802 0.2025102 -0.0001564612 0.502358 0.584310
0.027358 0.006096 0.256496 0.9792802 0.2025102 -0.0001564612 0.500977 0.664309
-0.00536 0.169047 -0.11508 0.9813669 -0.1285667 -0.1427921 0.500977 0.585691
-0.017185 0.159889 -0.054537 0.6929191 0.6808115 0.2374004 0.540286 0.625000
-0.033909 0.139859 -0.129495 -0.3232443 -0.03260808 -0.9457536 0.624023 0.377358
-0.055249 0.120973 -0.073756 -0.6688672 -0.4606539 -0.5834507 0.624023 0.414309
-0.033909 0.139859 -0.129495 -0.3232443 -0.03260808 -0.9457536 0.622642 0.500977
-0.036919 0.146153 -0.077019 -0.5856861 0.7398024 -0.331156 0.605143 0.518476
-0.036919 0.146153 -0.077019 -0.5856861 0.7398024 -0.331156 0.645833 0.355548
-0.00536 0.169047 -0.11508 -0.7461897 0.618293 -0.2468092 0.627358 0.500977
-0.013124 0.151123 -0.12366 -0.6477365 0.7183064 -0.2539163 0.644857 0.500977
-0.036919 0.146153 -0.077019 -0.5856861 0.7398024 -0.331156 0.644857 0.518476
-0.017185 0.159889 -0.054537 -0.3152007 0.9074656 -0.2777677 0.646810 0.500977
-0.036919 0.146153 -0.077019 -0.5856861 0.7398024 -0.331156 0.664309 0.500977
-0.036919 0.146153 -0.077019 -0.5856861 0.7398024 -0.331156 0.643476 0.521810
-0.041177 0.162603 -0.047393 -0.1817262 0.8483945 -0.4971945 0.625977 0.521810
-0.061961 0.151339 -0.053227 -0.4281705 0.6772838 -0.5982949 0.625977 0.519857
-0.036919 0.146153 -0.077019 -0.5856861 0.7398024 -0.331156 0.625977 0.502358
-0.036919 0.146153 -0.077019 -0.5856861 0.7398024 -0.331156 0.585691 0.542643
-0.055249 0.120973 -0.073756 -0.6688672 -0.4606539 -0.5834507 0.603190 0.542643
-0.069725 0.133415 -0.061807 -0.5099602 0.4108557 -0.7557369 0.603190 0.560142
0.027358 0.006096 0.256496 -0.02522614 -0.4227055 0.905916 0.601809 0.563477
-0.018954 -0.00021 0.252264 -0.02521579 -0.4227073 0.9059154 0.584310 0.580976
0.016721 -0.01846 0.244742 -0.02522714 -0.4227005 0.9059183 0.584310 0.544024
-0.018954 -0.00021 0.252264 -0.02521579 -0.4227073 0.9059154 0.601809 0.561523
-0.011753 -0.033891 0.236749 0.1257806 -0.9618837 0.2428149 0.584310 0.561523
-0.018954 -0.00021 0.252264 -0.02521579 -0.4227073 0.9059154 0.601809 0.521810
-0.045028 -0.026868 0.2391 -0.3893988 -0.8691768 0.3047956 0.584310 0.539309
-0.011753 -0.033891 0.236749 0.1257806 -0.9618837 0.2428149 0.584310 0.521810
-0.045028 -0.026868 0.2391 -0.3893988 -0.8691768 0.3047956 0.584310 0.519857
-0.018954 -0.00021 0.252264 -0.02521579 -0.4227073 0.9059154 0.584310 0.502358
-0.065266 -0.006516 0.248033 -0.02520658 -0.4227028 0.9059178 0.605143 0.523191
-0.018954 -0.00021 0.252264 -0.02521579 -0.4227073 0.9059154 0.622642 0.540690
-0.054629 0.01804 0.259787 -0.02520892 -0.422713 0.905913 0.585691 0.540690
-0.018954 -0.00021 0.252264 -0.02521579 -0.4227073 0.9059154 0.603190 0.523191
-0.026154 0.033471 0.26778 -0.02521346 -0.4227203 0.9059095 0.459310 0.396810
-0.018954 -0.00021 0.252264 -0.02521579 -0.4227073 0.9059154 0.476809 0.396810
0.00712 0.026448 0.265429 -0.02522028 -0.4227149 0.9059117 0.459310 0.414309
-0.013124 0.151123 -0.12366 0.7567049 -0.5684165 -0.3229558 0.919024 0.915690
0.016721 -0.01846 0.244742 0.7742151 -0.5487762 -0.3153341 0.999023 0.835691
-0.011753 -0.033891 0.236749 0.1257806 -0.9618837 0.2428149 0.999023 0.915690
-0.011753 -0.033891 0.236749 0.1257806 -0.9618837 0.2428149 0.500977 0.580976
-0.033909 0.139859 -0.129495 -0.3232443 -0.03260808 -0.9457536 0.500977 0.502358
-0.013124 0.151123 -0.12366 0.7567049 -0.5684165 -0.3229558 0.540286 0.541667
-0.055249 0.120973 -0.073756 -0.6688672 -0.4606539 -0.5834507 0.580976 0.582357
-0.045028 -0.026868 0.2391 -0.3893988 -0.8691768 0.3047956 0.502358 0.582357
-0.069725 0.133415 -0.061807 -0.9736822 -0.2127987 -0.08160781 0.584310 0.664309
-0.045028 -0.026868 0.2391 -0.3893988 -0.8691768 0.3047956 0.584310 0.585691
-0.065266 -0.006516 0.248033 -0.983507 -0.1697287 -0.06249901 0.625000 0.626381
-0.054629 0.01804 0.259787 -0.7587525 0.5927033 0.2701805 0.664309 0.665690
-0.061961 0.151339 -0.053227 -0.7734476 0.576449 0.2636011 0.585691 0.665690
-0.061961 0.151339 -0.053227 -0.7734476 0.576449 0.2636011 0.502358 0.665690
-0.069725 0.133415 -0.061807 -0.9736822 -0.2127987 -0.08160781 0.541667 0.626381
-0.065266 -0.006516 0.248033 -0.983507 -0.1697287 -0.06249901 0.580976 0.665690
-0.041177 0.162603 -0.047393 -0.155338 0.9113628 0.3811667 0.919024 0.917643
-0.026154 0.033471 0.26778 -0.145445 0.9130523 0.3810266 0.999023 0.917643
-0.041177 0.162603 -0.047393 -0.155338 0.9113628 0.3811667 0.543048 0.625000
0.00712 0.026448 0.265429 0.2166321 0.9069375 0.3612962 0.582357 0.585691
-0.26381 0.026962 0.041407 -0.2918549 -0.2744421 -0.9162436 0.915690 0.834310
0.169346 -0.005023 -0.084561 0.6112332 -0.7583148 -0.2266112 0.915690 0.914309
-0.189685 -0.002719 0.083768 -0.2000524 -0.6338984 0.7470956 0.832357 0.749023
0.174877 -0.021415 -0.051429 0.4913779 -0.8512254 -0.1842906 0.832357 0.669024
-0.183083 0.049593 0.061037 0.06132425 0.9966662 0.05381403 0.752358 0.750977
0.189161 0.016471 -0.011486 0.2158815 0.714331 0.6656774 0.832357 0.750977
0.168768 -0.005491 -0.099425 -0.3206149 -0.2954728 -0.8999455 0.749023 0.747642
0.168768 -0.005491 -0.099425 -0.3206149 -0.2954728 -0.8999455 0.830976 0.667643
-0.26381 0.026962 0.041407 -0.2918549 -0.2744421 -0.9162436 0.750977 0.747642
-0.19563 0.041629 0.037057 -0.1887167 0.6563572 -0.7304665 0.750977 0.667643
-0.189685 -0.002719 0.083768 -0.2000524 -0.6338984 0.7470956 0.665690 0.372642
-0.207789 0.020616 0.064824 -0.4214348 0.6319258 0.6504327 0.665690 0.414309
-0.259351 -0.006299 0.07644 -0.2728424 0.7710232 0.5753958 0.665690 0.377358
-0.207789 0.020616 0.064824 -0.4214348 0.6319258 0.6504327 0.645833 0.394452
-0.26381 0.026962 0.041407 -0.2642903 0.5611976 0.7843519 0.627358 0.457357
-0.263389 0.005666 0.052256 -0.3292352 0.6436165 0.6909139 0.645833 0.438881
-0.207789 0.020616 0.064824 -0.4214348 0.6319258 0.6504327 0.664309 0.457357
-0.207789 0.020616 0.064824 -0.4214348 0.6319258 0.6504327 0.459310 0.377358
-0.183083 0.049593 0.061037 -0.7056917 0.6411 0.3016455 0.497642 0.415690
-0.19563 0.041629 0.037057 -0.4961601 0.782954 0.3752441 0.480143 0.415690
-0.207789 0.020616 0.064824 -0.4214348 0.6319258 0.6504327 0.480143 0.398191
-0.179045 0.037628 0.085221 -0.6786546 0.4684804 0.5656449 0.478190 0.415690
-0.207789 0.020616 0.064824 -0.4214348 0.6319258 0.6504327 0.460691 0.415690
-0.207789 0.020616 0.064824 -0.4214348 0.6319258 0.6504327 0.455976 0.415690
-0.189685 -0.002719 0.083768 -0.2000524 -0.6338984 0.7470956 0.438477 0.415690
-0.178624 0.016332 0.096071 -0.1726719 -0.02581854 0.984641 0.438477 0.398191
0.169346 -0.005023 -0.084561 0.6112332 -0.7583148 -0.2266112 0.490964 0.406250
0.175181 0.02128 -0.080021 0.9690905 -0.139297 -0.2036171 0.419024 0.415690
0.169346 -0.005023 -0.084561 0.6112332 -0.7583148 -0.2266112 0.436523 0.415690
0.179254 -0.009098 -0.048024 0.9584329 -0.2046618 -0.1987966 0.489583 0.404869
0.174877 -0.021415 -0.051429 0.4913779 -0.8512254 -0.1842906 0.497642 0.396810
0.174877 -0.021415 -0.051429 0.4913779 -0.8512254 -0.1842906 0.470131 0.385417
0.169346 -0.005023 -0.084561 0.6112332 -0.7583148 -0.2266112 0.478190 0.377358
0.179254 -0.009098 -0.048024 0.9584329 -0.2046618 -0.1987966 0.478190 0.393476
0.183326 -0.009833 -0.016027 0.9589452 -0.1869755 -0.2132238 0.457357 0.394857
0.179254 -0.009098 -0.048024 0.9584329 -0.2046618 -0.1987966 0.439858 0.394857
0.189161 0.016471 -0.011486 0.9667475 -0.1366177 -0.2161825 0.460691 0.375977
0.183326 -0.009833 -0.016027 0.9589452 -0.1869755 -0.2132238 0.468750 0.384036
0.189161 0.016471 -0.011486 0.9667475 -0.1366177 -0.2161825 0.665690 0.419024
0.179254 -0.009098 -0.048024 0.9584329 -0.2046618 -0.1987966 0.665690 0.455976
0.18363 0.032863 -0.044619 0.9750858 -0.08506476 -0.2048699 0.647214 0.479167
0.179254 -0.009098 -0.048024 0.9584329 -0.2046618 -0.1987966 0.665690 0.460691
0.175181 0.02128 -0.080021 0.9690905 -0.139297 -0.2036171 0.665690 0.497642
0.174877 -0.021415 -0.051429 0.4913779 -0.8512254 -0.1842906 0.915690 0.747642
-0.259351 -0.006299 0.07644 -0.1197032 -0.9481521 -0.2944125 0.835691 0.667643
-0.263389 0.005666 0.052256 -0.2248876 -0.721455 -0.6549261 0.915690 0.667643
0.174877 -0.021415 -0.051429 0.4913779 -0.8512254 -0.1842906 0.917643 0.667643
-0.263389 0.005666 0.052256 -0.2248876 -0.721455 -0.6549261 0.997642 0.667643
0.169346 -0.005023 -0.084561 0.6112332 -0.7583148 -0.2266112 0.917643 0.747642
-0.178624 0.016332 0.096071 -0.1726719 -0.02581854 0.984641 0.375000 0.626381
-0.189685 -0.002719 0.083768 -0.2000524 -0.6338984 0.7470956 0.414309 0.665690
0.183326 -0.009833 -0.016027 -0.01854607 -0.9937945 0.1096745 0.335691 0.665690
-0.178624 0.016332 0.096071 -0.1726719 -0.02581854 0.984641 0.415690 0.664309
0.183326 -0.009833 -0.016027 -0.01854607 -0.9937945 0.1096745 0.376381 0.625000
0.189738 -0.012705 0.003377 0.1681901 -0.5265536 0.8333387 0.834310 0.750977
0.189161 0.016471 -0.011486 0.2158815 0.714331 0.6656774 0.914309 0.750977
-0.179045 0.037628 0.085221 0.2191219 0.6982083 0.6815357 0.834310 0.830976
0.189738 -0.012705 0.003377 0.1681901 -0.5265536 0.8333387 0.497642 0.582357
-0.179045 0.037628 0.085221 0.2191219 0.6982083 0.6815357 0.419024 0.582357
-0.178624 0.016332 0.096071 -0.1726719 -0.02581854 0.984641 0.458333 0.543048
0.18363 0.032863 -0.044619 0.0582551 0.9973195 0.04427332 0.834310 0.749023
-0.183083 0.049593 0.061037 0.06132425 0.9966662 0.05381403 0.914309 0.749023
0.175181 0.02128 -0.080021 -0.04323853 0.9526339 -0.3010303 0.082357 0.580976
-0.183083 0.049593 0.061037 0.06132425 0.9966662 0.05381403 0.082357 0.500977
-0.045082 0.271256 0.082747 -0.5084603 -0.7148129 0.4801152 0.000977 0.584310
0.071905 -0.017392 -0.190254 -0.4996462 -0.8302903 -0.2469247 0.000977 0.664309
0.140733 -0.017392 -0.170518 0.5078654 -0.4690295 0.7225539 0.830976 0.834310
0.041751 0.286632 0.105229 0.3902543 -0.5455999 0.741635 0.750000 0.915286
0.121328 0.045958 -0.232728 0.1699085 0.7423782 -0.6480785 0.080976 0.415690
0.007254 0.24589 0.004321 -0.2663064 0.554162 -0.7886606 0.000977 0.335691
0.071905 -0.017392 -0.190254 -0.4996462 -0.8302903 -0.2469247 0.667643 0.997642
-0.068637 0.277862 0.070086 -0.9050636 -0.425229 -0.006333596 0.667643 0.835691
0.071905 -0.017392 -0.190254 -0.4996462 -0.8302903 -0.2469247 0.084310 0.419024
-0.023233 0.2903 0.035037 -0.579602 0.6782414 -0.451719 0.164309 0.499023
-0.027132 0.293991 0.144832 -0.2416828 0.9673698 0.07606075 0.497642 0.584310
0.004519 0.308202 0.064662 -0.1318734 0.9875567 0.08568119 0.459310 0.622642
-0.045082 0.271256 0.082747 -0.3774986 0.9161242 0.1349497 0.627358 0.459310
0.004519 0.308202 0.064662 -0.1318734 0.9875567 0.08568119 0.664309 0.459310
-0.023233 0.2903 0.035037 -0.579602 0.6782414 -0.451719 0.645833 0.477786
-0.045082 0.271256 0.082747 -0.3774986 0.9161242 0.1349497 0.605548 0.437500
-0.023233 0.2903 0.035037 -0.579602 0.6782414 -0.451719 0.624023 0.419024
-0.023233 0.2903 0.035037 -0.579602 0.6782414 -0.451719 0.604167 0.436119
0.004519 0.308202 0.064662 -0.1318734 0.9875567 0.08568119 0.585691 0.417643
-0.023233 0.2903 0.035037 -0.579602 0.6782414 -0.451719 0.584310 0.459310
0.018941 0.309174 0.014367 -0.251289 0.9036026 -0.346924 0.622642 0.459310
0.007254 0.24589 0.004321 -0.2663064 0.554162 -0.7886606 0.584310 0.497642
0.018941 0.309174 0.014367 -0.251289 0.9036026 -0.346924 0.645833 0.436119
0.004519 0.308202 0.064662 -0.1318734 0.9875567 0.08568119 0.627358 0.417643
0.042496 0.302568 0.027028 0.2677467 0.9550546 0.1272102 0.622642 0.457357
0.004519 0.308202 0.064662 -0.1318734 0.9875567 0.08568119 0.584310 0.457357
0.041751 0.286632 0.105229 0.278832 0.9302037 0.238692 0.584310 0.419024
0.071905 -0.017392 -0.190254 -0.4996462 -0.8302903 -0.2469247 0.625977 0.419024
0.066866 0.009758 -0.215976 -0.5960851 -0.4246931 -0.6814091 0.644452 0.437500
0.071905 -0.017392 -0.190254 -0.4996462 -0.8302903 -0.2469247 0.625977 0.580976
0.112751 0.009758 -0.202819 0.209034 -0.6518354 -0.7289824 0.625977 0.544024
0.112751 0.009758 -0.202819 0.209034 -0.6518354 -0.7289824 0.627358 0.582357
0.140733 -0.017392 -0.170518 0.2090418 -0.6518364 -0.7289793 0.585691 0.582357
0.104175 -0.026442 -0.172909 0.2090311 -0.6518369 -0.7289819 0.604167 0.563881
0.112751 0.009758 -0.202819 0.209034 -0.6518354 -0.7289824 0.622642 0.582357
0.158636 0.009758 -0.189661 0.2090423 -0.6518369 -0.7289787 0.605548 0.562500
0.112751 0.009758 -0.202819 0.209034 -0.6518354 -0.7289824 0.624023 0.544024
0.153597 0.036908 -0.215383 0.2090373 -0.6518334 -0.7289833 0.664309 0.540690
0.112751 0.009758 -0.202819 0.209034 -0.6518354 -0.7289824 0.627358 0.540690
0.121328 0.045958 -0.232728 0.2090358 -0.6518287 -0.7289879 0.647214 0.520833
0.112751 0.009758 -0.202819 0.209034 -0.6518354 -0.7289824 0.665690 0.502358
0.112751 0.009758 -0.202819 0.209034 -0.6518354 -0.7289824 0.665690 0.580976
0.066866 0.009758 -0.215976 -0.5960851 -0.4246931 -0.6814091 0.647214 0.562500
0.08477 0.036908 -0.235119 0.2090334 -0.6518326 -0.7289852 0.665690 0.544024
0.140733 -0.017392 -0.170518 0.5078654 -0.4690295 0.7225539 0.667643 0.830976
-0.027132 0.293991 0.144832 -0.08679358 -0.7315957 0.6761913 0.667643 0.669024
-0.045082 0.271256 0.082747 -0.5084603 -0.7148129 0.4801152 0.748619 0.750000
0.140733 -0.017392 -0.170518 0.5078654 -0.4690295 0.7225539 0.002358 0.499023
-0.045082 0.271256 0.082747 -0.5084603 -0.7148129 0.4801152 0.082357 0.419024
0.104175 -0.026442 -0.172909 -0.166787 -0.6891767 0.7051366 0.082357 0.499023
0.158636 0.009758 -0.189661 0.9494997 0.2924152 0.1137705 0.167643 0.664309
0.042496 0.302568 0.027028 0.8147082 0.5366861 -0.2195874 0.247642 0.584310
0.153597 0.036908 -0.215383 0.8212765 0.5318615 -0.2064661 0.247642 0.582357
0.121328 0.045958 -0.232728 0.1699085 0.7423782 -0.6480785 0.167643 0.582357
0.042496 0.302568 0.027028 0.8147082 0.5366861 -0.2195874 0.167643 0.502358
0.121328 0.045958 -0.232728 0.1699085 0.7423782 -0.6480785 0.499023 0.502358
0.018941 0.309174 0.014367 0.07361038 0.6976414 -0.7126555 0.499023 0.580976
0.042496 0.302568 0.027028 0.8147082 0.5366861 -0.2195874 0.459714 0.541667
0.007254 0.24589 0.004321 -0.2663064 0.554162 -0.7886606 0.330976 0.665690
0.08477 0.036908 -0.235119 -0.5443485 0.5367259 -0.6446783 0.250977 0.665690
0.066866 0.009758 -0.215976 -0.5960851 -0.4246931 -0.6814091 0.250977 0.585691
0.007254 0.24589 0.004321 -0.2663064 0.554162 -0.7886606 0.459714 0.625000
0.066866 0.009758 -0.215976 -0.5960851 -0.4246931 -0.6814091 0.499023 0.585691
-0.023233 0.2903 0.035037 -0.579602 0.6782414 -0.451719 0.499023 0.664309
0.013026 0.417236 0.03246 -0.9336333 0.2424818 0.2636884 0.084310 0.585691
-0.155512 -0.02685 -0.181 -0.7816963 -0.02202522 0.6232703 0.164309 0.665690
-0.126186 -0.02354 -0.165603 -0.1096351 -0.7620248 0.6381994 0.165690 0.502358
0.043478 0.320866 0.019377 0.4384522 -0.5676768 0.6967803 0.165690 0.582357
0.028374 0.351418 -0.040124 0.1504565 0.4750694 -0.8669902 0.250977 0.419024
-0.078922 -0.02168 -0.242033 0.7612828 0.1069692 -0.6395359 0.330976 0.499023
0.013026 0.417236 0.03246 -0.9336333 0.2424818 0.2636884 0.249023 0.419024
-0.165691 -0.005416 -0.211656 -0.9220729 0.3868894 0.009910121 0.169024 0.499023
0.00503 0.361328 -0.025444 -0.7127717 0.5517043 -0.4331039 0.332357 0.335691
-0.165691 -0.005416 -0.211656 -0.9220729 0.3868894 0.009910121 0.252358 0.415690
0.041862 0.386889 0.066076 0.5328481 0.3706955 0.7606956 0.625977 0.460691
0.041862 0.386889 0.066076 0.5328481 0.3706955 0.7606956 0.627358 0.542643
0.03001 0.355962 0.005448 0.8151619 0.5386531 -0.2129881 0.664309 0.542643
0.020456 0.401591 0.054837 -0.04029331 0.7195521 0.6932685 0.645833 0.561119
0.020456 0.401591 0.054837 -0.04029331 0.7195521 0.6932685 0.645833 0.605548
0.03001 0.355962 0.005448 0.8151619 0.5386531 -0.2129881 0.664309 0.624023
0.03001 0.355962 0.005448 0.8151619 0.5386531 -0.2129881 0.624023 0.499023
0.013026 0.417236 0.03246 0.9093861 0.3506796 -0.223698 0.624023 0.460691
0.00503 0.361328 -0.025444 0.5418645 0.7843648 -0.3019188 0.457357 0.396810
0.03001 0.355962 0.005448 0.8151619 0.5386531 -0.2129881 0.457357 0.414309
0.028374 0.351418 -0.040124 0.4795198 0.8713351 -0.1040959 0.480143 0.356524
0.03001 0.355962 0.005448 0.8151619 0.5386531 -0.2129881 0.497642 0.374023
0.04978 0.336716 -0.028885 0.7141879 0.6996955 0.01902392 0.478190 0.374023
0.03001 0.355962 0.005448 0.8151619 0.5386531 -0.2129881 0.460691 0.374023
0.05721 0.321071 -0.006509 0.8019305 0.5320351 0.2717464 0.481524 0.353190
0.03001 0.355962 0.005448 0.8151619 0.5386531 -0.2129881 0.499023 0.335691
0.043478 0.320866 0.019377 0.90855 0.3984725 0.1255256 0.499023 0.353190
-0.165691 -0.005416 -0.211656 -0.3187667 -0.823237 -0.4697538 0.665690 0.627358
-0.117217 -0.024265 -0.211517 -0.1531277 -0.9503679 -0.270837 0.665690 0.664309
-0.126186 -0.02354 -0.165603 -0.1096351 -0.7620248 0.6381994 0.645833 0.644452
-0.155512 -0.02685 -0.181 -0.1278893 -0.9618216 -0.2419579 0.627358 0.625977
-0.117217 -0.024265 -0.211517 -0.1531277 -0.9503679 -0.270837 0.664309 0.625977
-0.126186 -0.02354 -0.165603 -0.1096351 -0.7620248 0.6381994 0.624023 0.585691
-0.117217 -0.024265 -0.211517 -0.1531277 -0.9503679 -0.270837 0.624023 0.622642
-0.09088 -0.028531 -0.180815 0.3245164 -0.8866147 0.3295506 0.605548 0.604167
-0.09088 -0.028531 -0.180815 0.3245164 -0.8866147 0.3295506 0.604167 0.602786
-0.117217 -0.024265 -0.211517 -0.1531277 -0.9503679 -0.270837 0.585691 0.584310
-0.117217 -0.024265 -0.211517 -0.1531277 -0.9503679 -0.270837 0.627358 0.584310
-0.068743 -0.019663 -0.211378 0.09446467 -0.9927915 -0.07376578 0.645833 0.602786
-0.078922 -0.02168 -0.242033 -0.12145 -0.964592 -0.2341198 0.644452 0.604167
-0.117217 -0.024265 -0.211517 -0.1531277 -0.9503679 -0.270837 0.625977 0.622642
-0.117217 -0.024265 -0.211517 -0.1531277 -0.9503679 -0.270837 0.544024 0.540690
-0.143553 0.003452 -0.242219 -0.3187733 -0.8232345 -0.4697537 0.562500 0.522214
-0.108248 -0.001539 -0.257431 -0.3187681 -0.8232401 -0.4697475 0.580976 0.540690
0.041862 0.386889 0.066076 0.5328481 0.3706955 0.7606956 0.332357 0.417643
0.020456 0.401591 0.054837 -0.04029331 0.7195521 0.6932685 0.332357 0.497642
-0.126186 -0.02354 -0.165603 -0.1096351 -0.7620248 0.6381994 0.252358 0.417643
0.020456 0.401591 0.054837 -0.04029331 0.7195521 0.6932685 0.252358 0.582357
-0.155512 -0.02685 -0.181 -0.7816963 -0.02202522 0.6232703 0.332357 0.502358
-0.126186 -0.02354 -0.165603 -0.1096351 -0.7620248 0.6381994 0.332357 0.582357
0.043478 0.320866 0.019377 0.4384522 -0.5676768 0.6967803 0.332357 0.664309
-0.09088 -0.028531 -0.180815 0.3245164 -0.8866147 0.3295506 0.252358 0.584310
-0.09088 -0.028531 -0.180815 0.3245164 -0.8866147 0.3295506 0.169024 0.500977
0.05721 0.321071 -0.006509 0.927169 -0.3715646 0.04793199 0.249023 0.580976
-0.068743 -0.019663 -0.211378 0.9429587 -0.332387 -0.01865419 0.250977 0.500977
-0.078922 -0.02168 -0.242033 0.7612828 0.1069692 -0.6395359 0.330976 0.500977
0.04978 0.336716 -0.028885 0.7904119 0.07415213 -0.6080711 0.250977 0.580976
-0.068743 -0.019663 -0.211378 0.9429587 -0.332387 -0.01865419 0.085691 0.415690
0.04978 0.336716 -0.028885 0.7904119 0.07415213 -0.6080711 0.165690 0.335691
0.05721 0.321071 -0.006509 0.927169 -0.3715646 0.04793199 0.165690 0.415690
0.028374 0.351418 -0.040124 0.1504565 0.4750694 -0.8669902 0.085691 0.417643
-0.108248 -0.001539 -0.257431 0.1826252 0.4632332 -0.8672156 0.165690 0.417643
0.028374 0.351418 -0.040124 0.1504565 0.4750694 -0.8669902 0.082357 0.334310
-0.143553 0.003452 -0.242219 -0.2530007 0.576322 -0.7770738 0.082357 0.414309
3 123 8 1 
3 200 112 201 
3 116 125 2 
3 202 10 203 
3 4 5 11 
3 204 205 16 
3 206 9 124 
3 207 208 209 
3 121 12 120 
3 210 115 211 
3 113 212 213 
3 214 215 216 
3 217 122 218 
3 219 220 221 
3 222 118 223 
3 224 225 226 
3 0 14 17 
3 227 228 13 
3 229 15 3 
3 230 231 232 
3 7 233 234 
3 235 236 237 
3 238 239 240 
3 241 242 243 
3 114 244 245 
3 246 247 117 
3 6 248 249 
3 250 251 119 
3 252 253 254 
3 255 256 257 
3 258 259 260 
3 261 262 263 
3 126 128 19 
3 264 21 265 
3 127 129 18 
3 266 20 267 
3 132 22 35 
3 268 269 138 
3 25 37 32 
3 270 271 24 
3 136 33 38 
3 272 273 26 
3 130 133 139 
3 274 275 36 
3 276 277 34 
3 278 279 30 
3 280 281 23 
3 282 31 283 
3 27 284 285 
3 286 287 140 
3 137 288 289 
3 290 291 292 
3 131 142 39 
3 293 294 141 
3 295 296 134 
3 297 298 299 
3 29 300 301 
3 302 303 143 
3 135 304 305 
3 306 307 308 
3 309 310 311 
3 312 313 314 
3 28 315 316 
3 317 318 319 
3 320 321 322 
3 323 324 325 
3 326 327 328 
3 329 330 331 
3 40 53 145 
3 332 150 333 
3 43 55 50 
3 334 335 42 
3 147 51 56 
3 336 337 44 
3 151 54 338 
3 339 340 341 
3 342 343 52 
3 344 345 48 
3 346 49 41 
3 347 348 349 
3 350 351 45 
3 352 153 353 
3 148 354 355 
3 356 357 358 
3 144 156 57 
3 359 360 154 
3 361 362 363 
3 364 365 366 
3 149 367 368 
3 369 370 157 
3 146 371 372 
3 373 374 375 
3 376 377 378 
3 379 380 381 
3 46 382 383 
3 384 385 47 
3 386 387 388 
3 389 390 391 
3 392 393 155 
3 394 395 152 
3 159 58 71 
3 396 397 164 
3 61 73 68 
3 398 60 399 
3 162 167 74 
3 400 401 62 
3 165 72 402 
3 403 404 405 
3 160 406 70 
3 407 66 408 
3 409 67 59 
3 410 411 412 
3 413 69 63 
3 414 415 416 
3 64 417 418 
3 419 420 421 
3 158 169 422 
3 423 75 424 
3 425 170 426 
3 427 428 429 
3 430 431 171 
3 432 163 433 
3 161 434 435 
3 436 437 438 
3 439 440 441 
3 442 443 444 
3 445 446 447 
3 448 449 65 
3 450 451 452 
3 453 454 455 
3 456 168 457 
3 458 166 459 
3 76 182 84 
3 460 77 461 
3 174 183 86 
3 462 463 78 
3 81 181 185 
3 464 175 465 
3 466 467 85 
3 468 469 90 
3 173 180 88 
3 470 471 178 
3 472 473 474 
3 475 476 172 
3 477 478 87 
3 479 480 481 
3 176 482 483 
3 484 485 486 
3 487 488 93 
3 489 490 89 
3 491 91 79 
3 492 493 494 
3 83 495 496 
3 497 498 92 
3 80 499 500 
3 501 502 503 
3 504 505 506 
3 507 508 509 
3 82 179 184 
3 510 177 511 
3 512 513 514 
3 515 516 517 
3 518 519 520 
3 521 522 523 
3 187 94 107 
3 524 525 102 
3 97 109 194 
3 526 527 96 
3 189 195 110 
3 528 529 98 
3 530 193 531 
3 532 197 533 
3 534 104 106 
3 535 536 537 
3 538 539 95 
3 540 103 541 
3 99 542 543 
3 544 545 105 
3 100 546 547 
3 548 549 550 
3 186 198 111 
3 551 552 196 
3 553 554 555 
3 556 557 558 
3 559 560 191 
3 561 199 562 
3 188 563 564 
3 565 566 567 
3 568 569 570 
3 571 572 573 
3 190 574 575 
3 576 101 577 
3 578 579 580 
3 581 582 583 
3 584 585 108 
3 586 587 192 
